# xmcd CD database file
#
# Track frame offsets:
#	150
#	12814
#	24923
#	36187
#	47795
#	60839
#	74963
#	86306
#	98004
#	109760
#	123422
#	139365
#	151276
#
# Disc length: 2183 seconds
#
# Revision: 0
# Processed by: cddbd v1.5.2PL0 Copyright (c) Steve Scherf et al.
# Submitted via: CDex 1.70beta2
#
DISCID=a408850d
DTITLE=Ray Charles - Going Away Blues CD 2
DYEAR=2005
DGENRE=Blues
TTITLE0=The Snow Is Falling
TTITLE1=Honey, Honey
TTITLE2=Sue's On The Ball
TTITLE3=How Long
TTITLE4=Baby, Won't You Please Come Home
TTITLE5=Someday
TTITLE6=Let's Have A Ball
TTITLE7=If I Give You My Love
TTITLE8=Can't See You Darling
TTITLE9=This Love Of Mine
TTITLE10=St. Pete Blues
TTITLE11=I Love You, I Love You
TTITLE12=You'll Never Miss The Water
EXTD=YEAR: 2005
EXTT0=
EXTT1=
EXTT2=
EXTT3=
EXTT4=
EXTT5=
EXTT6=
EXTT7=
EXTT8=
EXTT9=
EXTT10=
EXTT11=
EXTT12=
PLAYORDER=
